{
  "accessors": [
    {
      "bufferView": 2,
      "componentType": 5126,
      "count": 65532,
      "max": [
        25.59807014465332,
        18.484235763549805,
        21.082300186157227
      ],
      "min": [
        -3.676314353942871,
        -20.065553665161133,
        -13.70766830444336
      ],
      "type": "VEC3"
    },
    {
      "bufferView": 2,
      "byteOffset": 786384,
      "componentType": 5126,
      "count": 65532,
      "max": [
        0.9999977946281433,
        0.999986469745636,
        0.9999769926071167
      ],
      "min": [
        -0.9996920824050903,
        -0.9999715685844421,
        -0.9999754428863525
      ],
      "type": "VEC3"
    },
    {
      "bufferView": 1,
      "componentType": 5126,
      "count": 65532,
      "max": [
        0.9525539875030518,
        0.9699320197105408
      ],
      "min": [
        0.03006800077855587,
        0.008030000142753124
      ],
      "type": "VEC2"
    },
    {
      "bufferView": 0,
      "componentType": 5125,
      "count": 366138,
      "type": "SCALAR"
    },
    {
      "bufferView": 2,
      "byteOffset": 1572768,
      "componentType": 5126,
      "count": 65532,
      "max": [
        21.205114364624023,
        19.81838607788086,
        20.639760971069336
      ],
      "min": [
        -25.318490982055664,
        -19.862531661987305,
        -20.259952545166016
      ],
      "type": "VEC3"
    },
    {
      "bufferView": 2,
      "byteOffset": 2359152,
      "componentType": 5126,
      "count": 65532,
      "max": [
        0.9998914003372192,
        0.9999878406524658,
        0.9999783635139465
      ],
      "min": [
        -0.9999154210090637,
        -0.9999217391014099,
        -0.9999867677688599
      ],
      "type": "VEC3"
    },
    {
      "bufferView": 1,
      "byteOffset": 524256,
      "componentType": 5126,
      "count": 65532,
      "max": [
        0.7438589930534363,
        0.9699320197105408
      ],
      "min": [
        0.03006800077855587,
        0.16859500110149384
      ],
      "type": "VEC2"
    },
    {
      "bufferView": 0,
      "byteOffset": 1464552,
      "componentType": 5125,
      "count": 367014,
      "type": "SCALAR"
    },
    {
      "bufferView": 2,
      "byteOffset": 3145536,
      "componentType": 5126,
      "count": 65532,
      "max": [
        20.923686981201172,
        20.033971786499023,
        20.692333221435547
      ],
      "min": [
        -25.439416885375977,
        -19.87320899963379,
        -18.507667541503906
      ],
      "type": "VEC3"
    },
    {
      "bufferView": 2,
      "byteOffset": 3931920,
      "componentType": 5126,
      "count": 65532,
      "max": [
        0.9930012822151184,
        0.9999532103538513,
        0.9999891519546509
      ],
      "min": [
        -0.9999998807907104,
        -0.9999301433563232,
        -0.9900407195091248
      ],
      "type": "VEC3"
    },
    {
      "bufferView": 1,
      "byteOffset": 1048512,
      "componentType": 5126,
      "count": 65532,
      "max": [
        0.825007975101471,
        0.9699320197105408
      ],
      "min": [
        0.03006800077855587,
        0.6402080059051514
      ],
      "type": "VEC2"
    },
    {
      "bufferView": 0,
      "byteOffset": 2932608,
      "componentType": 5125,
      "count": 351702,
      "type": "SCALAR"
    },
    {
      "bufferView": 2,
      "byteOffset": 4718304,
      "componentType": 5126,
      "count": 31479,
      "max": [
        16.875274658203125,
        19.60433006286621,
        20.221235275268555
      ],
      "min": [
        -25.27631378173828,
        -19.860698699951172,
        -20.003929138183594
      ],
      "type": "VEC3"
    },
    {
      "bufferView": 2,
      "byteOffset": 5096052,
      "componentType": 5126,
      "count": 31479,
      "max": [
        0.9587677717208862,
        0.9999470710754395,
        0.9978896975517273
      ],
      "min": [
        -0.9995864629745483,
        -0.9999457597732544,
        -0.9999707937240601
      ],
      "type": "VEC3"
    },
    {
      "bufferView": 1,
      "byteOffset": 1572768,
      "componentType": 5126,
      "count": 31479,
      "max": [
        0.8213880062103271,
        0.9691839814186096
      ],
      "min": [
        0.03438200056552887,
        0.3543969988822937
      ],
      "type": "VEC2"
    },
    {
      "bufferView": 0,
      "byteOffset": 4339416,
      "componentType": 5125,
      "count": 154722,
      "type": "SCALAR"
    }
  ],
  "asset": {
    "extras": {
      "author": "RISD Nature Lab (https://sketchfab.com/RISDNaturelab)",
      "license": "CC-BY-4.0 (http://creativecommons.org/licenses/by/4.0/)",
      "source": "https://sketchfab.com/3d-models/strawberry-a32a74b2b306478dbece5a79c5e5cf23",
      "title": "Strawberry"
    },
    "generator": "Sketchfab-12.65.0",
    "version": "2.0"
  },
  "bufferViews": [
    {
      "buffer": 0,
      "byteLength": 4958304,
      "name": "floatBufferViews",
      "target": 34963
    },
    {
      "buffer": 0,
      "byteLength": 1824600,
      "byteOffset": 4958304,
      "byteStride": 8,
      "name": "floatBufferViews",
      "target": 34962
    },
    {
      "buffer": 0,
      "byteLength": 5473800,
      "byteOffset": 6782904,
      "byteStride": 12,
      "name": "floatBufferViews",
      "target": 34962
    }
  ],
  "buffers": [
    {
      "byteLength": 12256704,
      "uri": "scene.bin"
    }
  ],
  "images": [
    {
      "uri": "textures/material_0_baseColor.jpeg"
    }
  ],
  "materials": [
    {
      "doubleSided": true,
      "name": "material_0",
      "pbrMetallicRoughness": {
        "baseColorTexture": {
          "index": 0
        },
        "metallicFactor": 0.0,
        "roughnessFactor": 0.6003911985119533
      }
    }
  ],
  "meshes": [
    {
      "name": "Object_0",
      "primitives": [
        {
          "attributes": {
            "NORMAL": 1,
            "POSITION": 0,
            "TEXCOORD_0": 2
          },
          "indices": 3,
          "material": 0,
          "mode": 4
        }
      ]
    },
    {
      "name": "Object_1",
      "primitives": [
        {
          "attributes": {
            "NORMAL": 5,
            "POSITION": 4,
            "TEXCOORD_0": 6
          },
          "indices": 7,
          "material": 0,
          "mode": 4
        }
      ]
    },
    {
      "name": "Object_2",
      "primitives": [
        {
          "attributes": {
            "NORMAL": 9,
            "POSITION": 8,
            "TEXCOORD_0": 10
          },
          "indices": 11,
          "material": 0,
          "mode": 4
        }
      ]
    },
    {
      "name": "Object_3",
      "primitives": [
        {
          "attributes": {
            "NORMAL": 13,
            "POSITION": 12,
            "TEXCOORD_0": 14
          },
          "indices": 15,
          "material": 0,
          "mode": 4
        }
      ]
    }
  ],
  "nodes": [
    {
      "children": [
        1
      ],
      "matrix": [
        -0.2520765960216522,
        0.9509055018424988,
        -0.17954434454441048,
        0.0,
        -0.5791770815849304,
        0.0003868573694488086,
        0.8152016997337341,
        0.0,
        0.775249183177948,
        0.30948123335838307,
        0.5506451129913331,
        0.0,
        -0.2285373955965042,
        0.20843258500099185,
        -0.18337433040142054,
        1.0
      ],
      "name": "Sketchfab_model"
    },
    {
      "children": [
        2,
        3,
        4,
        5
      ],
      "name": "1-strawberry (Fragaria sp).obj.cleaner.materialmerger.gles"
    },
    {
      "mesh": 0,
      "name": "Object_2"
    },
    {
      "mesh": 1,
      "name": "Object_3"
    },
    {
      "mesh": 2,
      "name": "Object_4"
    },
    {
      "mesh": 3,
      "name": "Object_5"
    }
  ],
  "samplers": [
    {
      "magFilter": 9729,
      "minFilter": 9987,
      "wrapS": 10497,
      "wrapT": 10497
    }
  ],
  "scene": 0,
  "scenes": [
    {
      "name": "Sketchfab_Scene",
      "nodes": [
        0
      ]
    }
  ],
  "textures": [
    {
      "sampler": 0,
      "source": 0
    }
  ]
}
